<?xml version="1.0" encoding="utf-8"?>
<!-- Generator: Adobe Illustrator 24.0.0, SVG Export Plug-In . SVG Version: 6.00 Build 0)  -->
<svg version="1.1" id="Layer_1" xmlns="http://www.w3.org/2000/svg" xmlns:xlink="http://www.w3.org/1999/xlink" x="0px" y="0px"
	 viewBox="0 0 512 512" style="enable-background:new 0 0 512 512;" xml:space="preserve">
<style type="text/css">
	.st0{fill-rule:evenodd;clip-rule:evenodd;fill:#333333;}
	.st1{fill-rule:evenodd;clip-rule:evenodd;fill:#44B549;}
</style>
<g id="XMLID_1_">
	<path id="XMLID_37_" class="st0" d="M139.4,288.3h-11.2l0.7-4.1l-0.2,0c-2.6,3.7-7.6,5.4-12,5.4c-11.9,0-17.1-9.4-15.1-20.3
		c2.2-12.4,12.5-20.2,22.6-20.2c6.1,0,9,3,10,5.3l0.2,0l0.7-4l11.2,0L139.4,288.3L139.4,288.3z M120.5,279.1c7.1,0,10.5-6,11.2-9.6
		c0.8-4.6-1.3-9.6-7.7-9.6s-10.3,5.5-11,9.7C112.2,273.1,113.7,279.1,120.5,279.1z"/>
	<path id="XMLID_36_" class="st0" d="M152.4,250.5H163l-0.7,4l0.2,0c1.2-1.8,3.9-5.3,10.4-5.3l-2.1,11.4c-5.2,0.2-9,1.2-10.1,7
		l-3.8,20.8h-11.2L152.4,250.5z"/>
	<polygon id="XMLID_35_" class="st0" points="180.3,235.8 191.5,235.8 186.3,264.2 186.5,264.2 199.4,250.5 212.7,250.5 
		195.5,267.1 205.3,288.3 192.6,288.3 185.4,270.1 185.2,270.1 181.9,288.3 170.7,288.3 	"/>
	<path id="XMLID_32_" class="st0" d="M244.7,276.5c-2.6,4.2-5.8,7.5-9.4,9.6c-3.5,2.2-7.5,3.4-11.3,3.4c-10.8,0-18.3-8.8-16.2-20
		c1.9-10.5,12-20.3,23.4-20.3s18.1,9.1,16,20.7c-0.2,1.5-0.5,2.1-0.8,3l-28.1,0c-0.2,4.5,3.1,7.1,7.5,7.1c3.5,0,5.6-1.6,7.5-3.6
		H244.7L244.7,276.5z M236.8,265.2c-0.1-2.2-1.5-6.5-7.3-6.5c-5.8,0-8.8,4.2-9.7,6.5H236.8z"/>
	<path id="XMLID_29_" class="st1" d="M377.9,288.3h-11.2l0.7-4.1l-0.2,0c-2.6,3.7-7.6,5.4-12,5.4c-11.9,0-17.1-9.4-15.1-20.3
		c2.2-12.4,12.5-20.2,22.6-20.2c6.1,0,9,3,10,5.3l0.2,0l0.7-4l11.2,0L377.9,288.3L377.9,288.3z M359,279.1c7.1,0,10.5-6,11.2-9.6
		c0.8-4.6-1.3-9.6-7.7-9.6s-10.3,5.5-11,9.7C350.8,273.1,352.3,279.1,359,279.1z"/>
	<path id="XMLID_28_" class="st1" d="M449.6,273.9c-3.6,8.6-12.4,15.6-22.6,15.6c-11.4,0-18.4-9-16.4-20.2
		c2.1-11.1,12.3-20.1,23.5-20.1c10,0,16.8,6.6,16.9,15.9h-11.4c-0.7-2.6-2.5-5.3-7.1-5.3c-5.3-0.2-9.7,4.2-10.7,9.6
		c-1,5.5,1.8,9.6,7.1,9.6c4.6,0,7.4-2.7,9-5.1L449.6,273.9L449.6,273.9z"/>
	<path id="XMLID_27_" class="st1" d="M460.2,235.8h11.2l-3.3,18.2h0.2c2.5-3.4,6.6-4.7,10.5-4.7c3.6,0,7.6,1.3,9.5,4.2
		c2.5,3.7,2.2,7.1,1,13.8l-3.9,21.1h-11.2l3.8-20.6c0.3-1.8,1.4-7.9-4.6-7.9c-6.3,0-7.3,5.6-7.6,7.5l-3.8,21h-11.2L460.2,235.8z"/>
	<polygon id="XMLID_26_" class="st0" points="86.4,235.7 66.5,265.6 66.5,235.7 56.9,235.7 56.9,235.7 56.9,235.7 21.8,288.3 
		35.4,288.3 55.3,258.4 55.3,288.3 65,288.3 84.9,258.4 84.9,288.3 96.1,288.3 96.1,235.7 	"/>
	<path id="XMLID_25_" class="st0" d="M275.6,250.5h-7.1l2.1-11.1h-9.9l-0.8,4.3c-0.9,4.9-3.9,6.4-8.1,6.8l-0.2,0l0,0l-1.6,8.6h5.5
		l-5.4,29.2h11.2l5.4-29.2h7.1l0,0l0,0L275.6,250.5z"/>
	<polygon id="XMLID_24_" class="st1" points="356.3,222.4 334.7,235.8 340.7,235.8 320.8,265.6 320.8,235.7 311.1,235.7 
		291.2,265.6 291.2,235.7 280,235.7 280,288.3 289.7,288.3 309.6,258.4 309.6,288.3 319.2,288.3 319.2,288.3 319.2,288.3 
		354.3,235.8 359.7,235.8 	"/>
	<path id="XMLID_23_" class="st1" d="M413,250.5h-7.1l2.1-11.1h-9.9l-0.8,4.3c-0.9,4.9-3.9,6.4-8.1,6.8l-0.2,0l0,0l-1.6,8.6h5.5
		l-5.4,29.2h11.2l5.4-29.2h7.1l0,0l0,0L413,250.5z"/>
</g>
</svg>
