<svg width="184" height="76" viewBox="0 0 184 76" fill="none" xmlns="http://www.w3.org/2000/svg">
<path d="M108.619 38C108.619 31.0777 105.522 24.3108 99.719 18.555C93.9162 12.7993 85.6685 8.31328 76.0188 5.66422C66.3691 3.01515 55.7509 2.32203 45.5069 3.67252C35.2628 5.023 25.8531 8.35642 18.4675 13.2513C11.082 18.1461 6.05238 24.3825 4.01472 31.1718C1.97705 37.9612 3.02286 44.9985 7.01988 51.3939C11.0169 57.7893 17.7856 63.2556 26.4701 67.1014C35.1546 70.9473 45.3648 73 55.8095 73L55.8095 38H108.619Z" fill="#E962FF"/>
<g filter="url(#filter0_f_7:32)">
<path d="M125.245 39.0607C125.83 38.4749 125.83 37.5251 125.245 36.9393L115.699 27.3934C115.113 26.8076 114.163 26.8076 113.577 27.3934C112.991 27.9792 112.991 28.9289 113.577 29.5147L122.063 38L113.577 46.4853C112.991 47.0711 112.991 48.0208 113.577 48.6066C114.163 49.1924 115.113 49.1924 115.699 48.6066L125.245 39.0607ZM55.2536 39.5H124.184V36.5H55.2536V39.5Z" fill="#6100FF"/>
</g>
<g filter="url(#filter1_f_7:32)">
<path d="M57.4043 9.07425C56.8065 8.49354 55.8568 8.50156 55.283 9.09218L45.9329 18.7168C45.3591 19.3074 45.3786 20.257 45.9763 20.8377C46.5741 21.4184 47.5238 21.4104 48.0976 20.8198L56.4088 12.2645L65.0675 20.6763C65.6653 21.257 66.615 21.249 67.1888 20.6584C67.7626 20.0678 67.7431 19.1182 67.1454 18.5375L57.4043 9.07425ZM58.4212 37.273L57.8653 10.131L54.8654 10.1563L55.4213 37.2984L58.4212 37.273Z" fill="#6100FF"/>
</g>
<g filter="url(#filter2_f_7:32)">
<line x1="55.7536" y1="63" x2="55.7536" y2="73" stroke="black"/>
</g>
<g filter="url(#filter3_f_7:32)">
<line y1="-0.5" x2="10.5635" y2="-0.5" transform="matrix(-0.736732 0.676185 -0.912014 -0.41016 34.1298 60.1429)" stroke="black"/>
</g>
<g filter="url(#filter4_f_7:32)">
<line y1="-0.5" x2="14.0128" y2="-0.5" transform="matrix(-0.952082 0.305843 -0.61417 -0.789173 21.9002 50.1429)" stroke="black"/>
</g>
<g filter="url(#filter5_f_7:32)">
<line x1="16.3413" y1="37.7857" x2="3" y2="37.7857" stroke="black"/>
</g>
<g filter="url(#filter6_f_7:32)">
<line y1="-0.5" x2="14.0128" y2="-0.5" transform="matrix(-0.952082 -0.305843 0.61417 -0.789173 23.012 25.8571)" stroke="black"/>
</g>
<g filter="url(#filter7_f_7:32)">
<line y1="-0.5" x2="11.8677" y2="-0.5" transform="matrix(-0.749449 -0.662062 0.90598 -0.423321 35.2416 16.5714)" stroke="black"/>
</g>
<g filter="url(#filter8_f_7:32)">
<line x1="55.8654" y1="9.42857" x2="55.8654" y2="3" stroke="black"/>
</g>
<path d="M75.6987 60.2734L75.6733 61.8857L71.1729 62.0508V60.0513L71.814 60.0894L70.957 56.0205L69.5796 60.248L70.1382 60.2734L70.1001 61.8857L65.5996 62.0508V60.0513L67.0024 60.1274L65.5107 54.7319L64.2856 54.77V52.7705L69.7827 52.9927L69.7446 54.605L67.5103 54.6812L68.1577 59.0991L70.5508 54.4717H71.6299L73.0771 58.7627L74.6196 54.5796L72.7471 54.7319L72.6455 52.7324L78.1426 52.6816L78.1807 54.2939L76.0923 54.459L74.2578 60.2036L75.6987 60.2734ZM85.4043 61.27L85.0806 62.4443L81.9258 62.2095C81.9342 62.146 81.9448 62.0762 81.9575 62C81.9702 61.9238 81.9829 61.8519 81.9956 61.7842C82.0125 61.708 82.0273 61.6318 82.04 61.5557C81.6719 61.7588 81.2995 61.9027 80.9229 61.9873C80.5462 62.0719 80.1781 62.1143 79.8184 62.1143C79.556 62.1143 79.283 62.091 78.9995 62.0444C78.716 61.9979 78.4557 61.9175 78.2188 61.8032C77.986 61.6847 77.7935 61.5303 77.6411 61.3398C77.4888 61.1452 77.4126 60.9019 77.4126 60.6099C77.4126 60.3009 77.4824 60.0343 77.6221 59.8101C77.7617 59.5858 77.9458 59.3953 78.1743 59.2388C78.4028 59.078 78.661 58.9489 78.9487 58.8516C79.2407 58.7542 79.5348 58.6781 79.8311 58.623C80.1315 58.5638 80.4235 58.5257 80.707 58.5088C80.9906 58.4876 81.2402 58.4771 81.4561 58.4771C81.6846 58.4771 81.8898 58.4834 82.0718 58.4961C82.2537 58.5046 82.4167 58.5194 82.5605 58.5405C82.6113 58.2316 82.6367 57.9375 82.6367 57.6582C82.6367 57.4551 82.6092 57.271 82.5542 57.106C82.5034 56.9409 82.4124 56.8034 82.2812 56.6934C82.1543 56.5833 81.9829 56.5008 81.7671 56.4458C81.5555 56.3908 81.291 56.3696 80.9736 56.3823C80.762 56.4035 80.5674 56.4627 80.3896 56.5601C80.3135 56.6024 80.2352 56.6553 80.1548 56.7188C80.0786 56.7822 80.0046 56.8584 79.9326 56.9473C79.8649 57.0361 79.8035 57.1419 79.7485 57.2646C79.6935 57.3831 79.6512 57.5186 79.6216 57.6709L77.5713 57.7725C77.6009 57.4805 77.675 57.2223 77.7935 56.998C77.9119 56.7695 78.0558 56.5728 78.2251 56.4077C78.3986 56.2384 78.589 56.0946 78.7964 55.9761C79.0037 55.8576 79.2132 55.7581 79.4248 55.6777C79.9242 55.4958 80.4806 55.3836 81.0942 55.3413C81.6444 55.3328 82.1099 55.3857 82.4907 55.5C82.8758 55.61 83.1932 55.7603 83.4429 55.9507C83.6925 56.1369 83.8872 56.3485 84.0269 56.5854C84.1665 56.8224 84.2681 57.0594 84.3315 57.2964C84.395 57.5291 84.431 57.7513 84.4395 57.9629C84.4479 58.1702 84.45 58.3416 84.4458 58.4771C84.4331 58.6421 84.4035 58.8494 84.3569 59.0991C84.3188 59.3149 84.2617 59.5858 84.1855 59.9116C84.1136 60.2375 84.0142 60.6268 83.8872 61.0796L85.4043 61.27ZM82.4146 59.3975C82.3172 59.389 82.2114 59.3826 82.0972 59.3784C81.9829 59.3742 81.8644 59.3721 81.7417 59.3721C81.6359 59.3721 81.5047 59.3763 81.3481 59.3848C81.1958 59.3932 81.035 59.4102 80.8657 59.4355C80.6965 59.4567 80.5272 59.4884 80.3579 59.5308C80.1886 59.5731 80.0363 59.6281 79.9009 59.6958C79.7697 59.7635 79.6618 59.846 79.5771 59.9434C79.4925 60.0407 79.4502 60.1549 79.4502 60.2861C79.4502 60.3877 79.4798 60.485 79.5391 60.5781C79.6025 60.667 79.6872 60.7432 79.793 60.8066C79.8988 60.8701 80.0215 60.9167 80.1611 60.9463C80.305 60.9717 80.4552 60.9717 80.6118 60.9463C80.9292 60.887 81.2275 60.8151 81.5068 60.7305C81.7904 60.6416 82.0337 60.557 82.2368 60.4766C82.2707 60.2988 82.3024 60.119 82.332 59.937C82.3617 59.755 82.3892 59.5752 82.4146 59.3975ZM88.4131 59.5562C88.4131 59.7847 88.4448 59.9836 88.5083 60.1528C88.576 60.3221 88.667 60.4639 88.7812 60.5781C88.8955 60.6882 89.0288 60.7707 89.1812 60.8257C89.3377 60.8807 89.5049 60.9082 89.6826 60.9082C89.8604 60.9082 90.0465 60.8807 90.2412 60.8257C90.4359 60.7707 90.6284 60.6882 90.8188 60.5781C91.0093 60.4681 91.1955 60.3306 91.3774 60.1655C91.5594 60.0005 91.7287 59.8101 91.8853 59.5942C91.9276 59.7466 91.972 59.9137 92.0186 60.0957C92.0609 60.2523 92.1074 60.4342 92.1582 60.6416C92.2132 60.8447 92.2725 61.0627 92.3359 61.2954C92.082 61.4858 91.8324 61.6424 91.5869 61.7651C91.3415 61.8879 91.1024 61.9852 90.8696 62.0571C90.6411 62.1291 90.4211 62.1777 90.2095 62.2031C89.9979 62.2327 89.8011 62.2476 89.6191 62.2476C89.1452 62.2476 88.7432 62.1841 88.4131 62.0571C88.0872 61.9344 87.8143 61.7651 87.5942 61.5493C87.3784 61.3293 87.2091 61.0732 87.0864 60.7812C86.9679 60.485 86.8791 60.1676 86.8198 59.8291C86.7606 59.4863 86.7246 59.1309 86.7119 58.7627C86.6992 58.3903 86.6929 58.0221 86.6929 57.6582C86.6929 57.5651 86.695 57.4593 86.6992 57.3408C86.7035 57.2223 86.7098 57.0975 86.7183 56.9663L85.2012 57.0107L85.3281 55.6841L86.8643 55.5635C86.9066 55.2038 86.951 54.8525 86.9976 54.5098C87.0483 54.167 87.0928 53.8581 87.1309 53.583C87.1774 53.2614 87.2218 52.9567 87.2642 52.6689L89.3208 52.8213C89.27 53.0498 89.2192 53.2995 89.1685 53.5703C89.1219 53.8031 89.069 54.076 89.0098 54.3892C88.9548 54.6981 88.8976 55.0345 88.8384 55.3984L91.5933 55.1763L91.5552 56.814L88.6162 56.9028C88.5527 57.3768 88.502 57.8402 88.4639 58.293C88.43 58.7415 88.4131 59.1626 88.4131 59.5562ZM99.6548 60.8066C99.4601 61.0563 99.2528 61.2679 99.0327 61.4414C98.8127 61.6107 98.5884 61.7524 98.3599 61.8667C98.1356 61.9767 97.9134 62.0614 97.6934 62.1206C97.4733 62.1841 97.2681 62.2285 97.0776 62.2539C96.8872 62.2835 96.7158 62.3005 96.5635 62.3047C96.4111 62.3089 96.2905 62.311 96.2017 62.311C95.8674 62.311 95.5415 62.2729 95.2241 62.1968C94.9067 62.1248 94.6063 62.019 94.3228 61.8794C94.0435 61.7397 93.7896 61.5662 93.561 61.3589C93.3325 61.1515 93.1379 60.9167 92.9771 60.6543C92.8205 60.3919 92.7041 60.1021 92.6279 59.7847C92.5518 59.4631 92.5285 59.1182 92.5581 58.75C92.6047 58.1533 92.7401 57.6413 92.9644 57.2139C93.1929 56.7822 93.4764 56.4289 93.8149 56.1538C94.1577 55.8745 94.5386 55.6693 94.9575 55.5381C95.3807 55.4069 95.8081 55.3413 96.2397 55.3413C96.4344 55.3498 96.6396 55.3773 96.8555 55.4238C97.0374 55.4661 97.2427 55.5296 97.4712 55.6143C97.6997 55.6989 97.9303 55.8174 98.1631 55.9697L98.3853 54.8906L99.9277 55.189L98.8613 58.0327L97.7822 57.9058L97.9663 56.979C97.8097 56.8563 97.6595 56.7632 97.5156 56.6997C97.376 56.632 97.2511 56.5812 97.1411 56.5474C97.0142 56.5093 96.8957 56.486 96.7856 56.4775C96.4302 56.4775 96.117 56.5347 95.8462 56.6489C95.5796 56.7632 95.3532 56.9219 95.167 57.125C94.985 57.3239 94.8475 57.563 94.7544 57.8423C94.6613 58.1174 94.6147 58.4199 94.6147 58.75C94.6147 59.1097 94.6549 59.4419 94.7354 59.7466C94.82 60.0513 94.9512 60.3158 95.1289 60.54C95.3066 60.7601 95.5309 60.9336 95.8018 61.0605C96.0768 61.1833 96.4048 61.2446 96.7856 61.2446C97.0269 61.2277 97.2596 61.16 97.4839 61.0415C97.577 60.9907 97.6743 60.9272 97.7759 60.8511C97.8774 60.7707 97.9769 60.6755 98.0742 60.5654C98.1715 60.4512 98.2646 60.32 98.3535 60.1719C98.4424 60.0195 98.5207 59.8439 98.5884 59.645L99.6548 60.8066ZM104.517 60.7749L104.396 62.146L100.042 62.1143V60.959L101.356 60.9082L101.267 53.8369L99.915 53.8877V52.8594L103.476 52.6499L103.279 56.4521C103.597 56.194 103.908 56.0015 104.212 55.8745C104.521 55.7476 104.794 55.6587 105.031 55.6079C105.311 55.5487 105.577 55.5254 105.831 55.5381C106.254 55.5381 106.614 55.5973 106.91 55.7158C107.211 55.8301 107.452 55.9951 107.634 56.2109C107.82 56.4225 107.955 56.6764 108.04 56.9727C108.125 57.2689 108.167 57.5968 108.167 57.9565C108.167 58.5109 108.142 59.0356 108.091 59.5308C108.044 60.0216 107.979 60.4977 107.894 60.959L109.246 60.8828L109.068 62.146L105.634 62.0127C105.681 61.6318 105.725 61.27 105.768 60.9272C105.814 60.5802 105.854 60.2459 105.888 59.9243C105.926 59.5985 105.956 59.2832 105.977 58.9785C105.998 58.6696 106.009 58.3628 106.009 58.0581C106.009 57.8677 105.994 57.6899 105.964 57.5249C105.935 57.3556 105.884 57.2096 105.812 57.0869C105.74 56.9642 105.643 56.8669 105.52 56.7949C105.402 56.7188 105.253 56.6764 105.076 56.668C104.915 56.6764 104.737 56.7145 104.542 56.7822C104.377 56.8415 104.183 56.9367 103.958 57.0679C103.734 57.1948 103.491 57.3789 103.229 57.6201L103.057 60.8447L104.517 60.7749Z" fill="black"/>
<path d="M118.704 61.8286L113.715 62.2476L113.886 60.229L115.638 60.3496L115.511 55.2271L113.715 55.4238L113.937 52.7959H117.968L121.167 59.0483L123.293 52.7959H127.312V54.8081H125.464L125.623 60.3115L127.572 60.3623L127.68 61.8286L122.519 62.2476V60.229L124.373 60.2861L123.662 55.4873L121.294 61.2446H120.329L117.162 55.4111L116.793 60.4131L118.59 60.5337L118.704 61.8286ZM136.224 61.27L135.9 62.4443L132.745 62.2095C132.754 62.146 132.764 62.0762 132.777 62C132.79 61.9238 132.802 61.8519 132.815 61.7842C132.832 61.708 132.847 61.6318 132.859 61.5557C132.491 61.7588 132.119 61.9027 131.742 61.9873C131.366 62.0719 130.997 62.1143 130.638 62.1143C130.375 62.1143 130.102 62.091 129.819 62.0444C129.535 61.9979 129.275 61.9175 129.038 61.8032C128.805 61.6847 128.613 61.5303 128.46 61.3398C128.308 61.1452 128.232 60.9019 128.232 60.6099C128.232 60.3009 128.302 60.0343 128.441 59.8101C128.581 59.5858 128.765 59.3953 128.994 59.2388C129.222 59.078 129.48 58.9489 129.768 58.8516C130.06 58.7542 130.354 58.6781 130.65 58.623C130.951 58.5638 131.243 58.5257 131.526 58.5088C131.81 58.4876 132.06 58.4771 132.275 58.4771C132.504 58.4771 132.709 58.4834 132.891 58.4961C133.073 58.5046 133.236 58.5194 133.38 58.5405C133.431 58.2316 133.456 57.9375 133.456 57.6582C133.456 57.4551 133.429 57.271 133.374 57.106C133.323 56.9409 133.232 56.8034 133.101 56.6934C132.974 56.5833 132.802 56.5008 132.586 56.4458C132.375 56.3908 132.11 56.3696 131.793 56.3823C131.581 56.4035 131.387 56.4627 131.209 56.5601C131.133 56.6024 131.055 56.6553 130.974 56.7188C130.898 56.7822 130.824 56.8584 130.752 56.9473C130.684 57.0361 130.623 57.1419 130.568 57.2646C130.513 57.3831 130.471 57.5186 130.441 57.6709L128.391 57.7725C128.42 57.4805 128.494 57.2223 128.613 56.998C128.731 56.7695 128.875 56.5728 129.044 56.4077C129.218 56.2384 129.408 56.0946 129.616 55.9761C129.823 55.8576 130.033 55.7581 130.244 55.6777C130.743 55.4958 131.3 55.3836 131.914 55.3413C132.464 55.3328 132.929 55.3857 133.31 55.5C133.695 55.61 134.013 55.7603 134.262 55.9507C134.512 56.1369 134.707 56.3485 134.846 56.5854C134.986 56.8224 135.087 57.0594 135.151 57.2964C135.214 57.5291 135.25 57.7513 135.259 57.9629C135.267 58.1702 135.269 58.3416 135.265 58.4771C135.252 58.6421 135.223 58.8494 135.176 59.0991C135.138 59.3149 135.081 59.5858 135.005 59.9116C134.933 60.2375 134.833 60.6268 134.707 61.0796L136.224 61.27ZM133.234 59.3975C133.137 59.389 133.031 59.3826 132.917 59.3784C132.802 59.3742 132.684 59.3721 132.561 59.3721C132.455 59.3721 132.324 59.3763 132.167 59.3848C132.015 59.3932 131.854 59.4102 131.685 59.4355C131.516 59.4567 131.347 59.4884 131.177 59.5308C131.008 59.5731 130.856 59.6281 130.72 59.6958C130.589 59.7635 130.481 59.846 130.396 59.9434C130.312 60.0407 130.27 60.1549 130.27 60.2861C130.27 60.3877 130.299 60.485 130.358 60.5781C130.422 60.667 130.507 60.7432 130.612 60.8066C130.718 60.8701 130.841 60.9167 130.98 60.9463C131.124 60.9717 131.275 60.9717 131.431 60.9463C131.749 60.887 132.047 60.8151 132.326 60.7305C132.61 60.6416 132.853 60.557 133.056 60.4766C133.09 60.2988 133.122 60.119 133.151 59.937C133.181 59.755 133.208 59.5752 133.234 59.3975ZM141.74 60.5464V61.6128L136.852 62.2349L136.668 60.6099L138.293 60.5972L138.369 57.0742L136.395 56.9282V55.8491L140.502 55.4873L140.292 56.9028C140.386 56.8055 140.508 56.6934 140.661 56.5664C140.813 56.4352 140.98 56.304 141.162 56.1729C141.348 56.0374 141.545 55.902 141.752 55.7666C141.964 55.6312 142.176 55.5085 142.387 55.3984C142.599 55.2842 142.806 55.1868 143.009 55.1064C143.217 55.0218 143.407 54.9626 143.581 54.9287L143.752 57.0361C143.143 57.0361 142.618 57.089 142.178 57.1948C141.742 57.3006 141.378 57.417 141.086 57.5439C140.747 57.6921 140.462 57.8592 140.229 58.0454L139.785 60.5718L141.74 60.5464ZM152.912 62.0889H150.081L147.542 59.1245L147.256 59.3086L147.167 60.8955L148.284 60.8574V62.0889H144.031V60.9844L145.206 60.9463L145.32 54.1226L143.955 54.0591V52.9546L147.649 52.8467L147.338 57.9819L149.7 56.0078L152.404 55.6968L152.226 57.1885H150.519L149.116 58.1152L151.655 60.8574L152.912 60.6353V62.0889ZM160.795 59.8291C160.635 60.248 160.41 60.612 160.123 60.9209C159.839 61.2256 159.517 61.4795 159.158 61.6826C158.798 61.8815 158.417 62.0296 158.015 62.127C157.613 62.2243 157.217 62.2729 156.828 62.2729C156.286 62.2729 155.804 62.1883 155.381 62.019C154.958 61.8498 154.598 61.6213 154.302 61.3335C154.006 61.0457 153.773 60.7093 153.604 60.3242C153.438 59.9349 153.343 59.5223 153.318 59.0864C153.318 58.422 153.428 57.855 153.648 57.3853C153.872 56.9113 154.175 56.5262 154.556 56.23C154.941 55.9338 155.389 55.7179 155.901 55.5825C156.413 55.4429 156.957 55.373 157.533 55.373C157.744 55.373 157.962 55.3879 158.187 55.4175C158.415 55.4471 158.637 55.5 158.853 55.5762C159.069 55.6523 159.274 55.7581 159.469 55.8936C159.668 56.0247 159.845 56.1961 160.002 56.4077C160.163 56.6151 160.298 56.8647 160.408 57.1567C160.518 57.4487 160.594 57.7936 160.637 58.1914L155.425 59.1245C155.459 59.4165 155.518 59.7021 155.603 59.9814C155.692 60.2607 155.81 60.5083 155.958 60.7241C156.107 60.9357 156.289 61.105 156.504 61.2319C156.724 61.3547 156.985 61.4118 157.285 61.4033C157.611 61.3652 157.899 61.2679 158.148 61.1113C158.254 61.0436 158.356 60.9611 158.453 60.8638C158.55 60.7622 158.635 60.6416 158.707 60.502C158.779 60.3623 158.832 60.1994 158.866 60.0132C158.9 59.827 158.906 59.6133 158.885 59.3721L160.795 59.8291ZM158.39 57.7852C158.373 57.5863 158.337 57.4128 158.282 57.2646C158.227 57.1165 158.157 56.9896 158.072 56.8838C157.992 56.778 157.901 56.6912 157.799 56.6235C157.702 56.5516 157.603 56.4945 157.501 56.4521C157.264 56.3548 156.997 56.3104 156.701 56.3188C156.422 56.3527 156.195 56.4331 156.022 56.5601C155.848 56.6828 155.713 56.8372 155.616 57.0234C155.523 57.2054 155.459 57.4085 155.425 57.6328C155.391 57.8571 155.375 58.0856 155.375 58.3184L158.39 57.7852ZM164.128 59.5562C164.128 59.7847 164.16 59.9836 164.223 60.1528C164.291 60.3221 164.382 60.4639 164.496 60.5781C164.61 60.6882 164.744 60.7707 164.896 60.8257C165.053 60.8807 165.22 60.9082 165.397 60.9082C165.575 60.9082 165.761 60.8807 165.956 60.8257C166.151 60.7707 166.343 60.6882 166.534 60.5781C166.724 60.4681 166.91 60.3306 167.092 60.1655C167.274 60.0005 167.444 59.8101 167.6 59.5942C167.642 59.7466 167.687 59.9137 167.733 60.0957C167.776 60.2523 167.822 60.4342 167.873 60.6416C167.928 60.8447 167.987 61.0627 168.051 61.2954C167.797 61.4858 167.547 61.6424 167.302 61.7651C167.056 61.8879 166.817 61.9852 166.584 62.0571C166.356 62.1291 166.136 62.1777 165.924 62.2031C165.713 62.2327 165.516 62.2476 165.334 62.2476C164.86 62.2476 164.458 62.1841 164.128 62.0571C163.802 61.9344 163.529 61.7651 163.309 61.5493C163.093 61.3293 162.924 61.0732 162.801 60.7812C162.683 60.485 162.594 60.1676 162.535 59.8291C162.475 59.4863 162.439 59.1309 162.427 58.7627C162.414 58.3903 162.408 58.0221 162.408 57.6582C162.408 57.5651 162.41 57.4593 162.414 57.3408C162.418 57.2223 162.425 57.0975 162.433 56.9663L160.916 57.0107L161.043 55.6841L162.579 55.5635C162.621 55.2038 162.666 54.8525 162.712 54.5098C162.763 54.167 162.808 53.8581 162.846 53.583C162.892 53.2614 162.937 52.9567 162.979 52.6689L165.036 52.8213C164.985 53.0498 164.934 53.2995 164.883 53.5703C164.837 53.8031 164.784 54.076 164.725 54.3892C164.67 54.6981 164.612 55.0345 164.553 55.3984L167.308 55.1763L167.27 56.814L164.331 56.9028C164.268 57.3768 164.217 57.8402 164.179 58.293C164.145 58.7415 164.128 59.1626 164.128 59.5562Z" fill="#AF7A00"/>
<defs>
<filter id="filter0_f_7:32" x="53.2536" y="24.9541" width="74.4303" height="26.0919" filterUnits="userSpaceOnUse" color-interpolation-filters="sRGB">
<feFlood flood-opacity="0" result="BackgroundImageFix"/>
<feBlend mode="normal" in="SourceGraphic" in2="BackgroundImageFix" result="shape"/>
<feGaussianBlur stdDeviation="1" result="effect1_foregroundBlur_7:32"/>
</filter>
<filter id="filter1_f_7:32" x="43.515" y="6.64391" width="26.0917" height="32.6545" filterUnits="userSpaceOnUse" color-interpolation-filters="sRGB">
<feFlood flood-opacity="0" result="BackgroundImageFix"/>
<feBlend mode="normal" in="SourceGraphic" in2="BackgroundImageFix" result="shape"/>
<feGaussianBlur stdDeviation="1" result="effect1_foregroundBlur_7:32"/>
</filter>
<filter id="filter2_f_7:32" x="52.2536" y="60" width="7" height="16" filterUnits="userSpaceOnUse" color-interpolation-filters="sRGB">
<feFlood flood-opacity="0" result="BackgroundImageFix"/>
<feBlend mode="normal" in="SourceGraphic" in2="BackgroundImageFix" result="shape"/>
<feGaussianBlur stdDeviation="1.5" result="effect1_foregroundBlur_7:32"/>
</filter>
<filter id="filter3_f_7:32" x="23.3474" y="57.1429" width="14.6945" height="13.553" filterUnits="userSpaceOnUse" color-interpolation-filters="sRGB">
<feFlood flood-opacity="0" result="BackgroundImageFix"/>
<feBlend mode="normal" in="SourceGraphic" in2="BackgroundImageFix" result="shape"/>
<feGaussianBlur stdDeviation="1.5" result="effect1_foregroundBlur_7:32"/>
</filter>
<filter id="filter4_f_7:32" x="5.55889" y="47.1429" width="19.9555" height="11.0749" filterUnits="userSpaceOnUse" color-interpolation-filters="sRGB">
<feFlood flood-opacity="0" result="BackgroundImageFix"/>
<feBlend mode="normal" in="SourceGraphic" in2="BackgroundImageFix" result="shape"/>
<feGaussianBlur stdDeviation="1.5" result="effect1_foregroundBlur_7:32"/>
</filter>
<filter id="filter5_f_7:32" x="-3.8147e-06" y="34.2857" width="19.3413" height="7" filterUnits="userSpaceOnUse" color-interpolation-filters="sRGB">
<feFlood flood-opacity="0" result="BackgroundImageFix"/>
<feBlend mode="normal" in="SourceGraphic" in2="BackgroundImageFix" result="shape"/>
<feGaussianBlur stdDeviation="1.5" result="effect1_foregroundBlur_7:32"/>
</filter>
<filter id="filter6_f_7:32" x="6.0565" y="18.5714" width="19.9555" height="11.0749" filterUnits="userSpaceOnUse" color-interpolation-filters="sRGB">
<feFlood flood-opacity="0" result="BackgroundImageFix"/>
<feBlend mode="normal" in="SourceGraphic" in2="BackgroundImageFix" result="shape"/>
<feGaussianBlur stdDeviation="1.5" result="effect1_foregroundBlur_7:32"/>
</filter>
<filter id="filter7_f_7:32" x="22.4414" y="5.71428" width="15.8002" height="14.2805" filterUnits="userSpaceOnUse" color-interpolation-filters="sRGB">
<feFlood flood-opacity="0" result="BackgroundImageFix"/>
<feBlend mode="normal" in="SourceGraphic" in2="BackgroundImageFix" result="shape"/>
<feGaussianBlur stdDeviation="1.5" result="effect1_foregroundBlur_7:32"/>
</filter>
<filter id="filter8_f_7:32" x="52.3654" y="3.8147e-06" width="7" height="12.4286" filterUnits="userSpaceOnUse" color-interpolation-filters="sRGB">
<feFlood flood-opacity="0" result="BackgroundImageFix"/>
<feBlend mode="normal" in="SourceGraphic" in2="BackgroundImageFix" result="shape"/>
<feGaussianBlur stdDeviation="1.5" result="effect1_foregroundBlur_7:32"/>
</filter>
</defs>
</svg>
